solid csg.js
facet normal -1 0 0
outer loop
vertex -50 -20 0
vertex -50 -20 10
vertex -50 20 10
endloop
endfacet
facet normal -1 0 0
outer loop
vertex -50 -20 0
vertex -50 20 10
vertex -50 20 0
endloop
endfacet
facet normal 1 0 0
outer loop
vertex 50 -20 0
vertex 50 20 0
vertex 50 20 10
endloop
endfacet
facet normal 1 0 0
outer loop
vertex 50 -20 0
vertex 50 20 10
vertex 50 -20 10
endloop
endfacet
facet normal 0 -1 0
outer loop
vertex -50 -20 0
vertex 50 -20 0
vertex 50 -20 10
endloop
endfacet
facet normal 0 -1 0
outer loop
vertex -50 -20 0
vertex 50 -20 10
vertex -50 -20 10
endloop
endfacet
facet normal 0 1 0
outer loop
vertex -50 20 0
vertex -50 20 10
vertex 50 20 10
endloop
endfacet
facet normal 0 1 0
outer loop
vertex -50 20 0
vertex 50 20 10
vertex 50 20 0
endloop
endfacet
facet normal 0 0 -1
outer loop
vertex -50 -20 0
vertex -50 20 0
vertex 50 20 0
endloop
endfacet
facet normal 0 0 -1
outer loop
vertex -50 -20 0
vertex 50 20 0
vertex 50 -20 0
endloop
endfacet
facet normal 0 0 1
outer loop
vertex -50 -20 10
vertex 50 -20 10
vertex 50 20 10
endloop
endfacet
facet normal 0 0 1
outer loop
vertex -50 -20 10
vertex 50 20 10
vertex -50 20 10
endloop
endfacet
endsolid csg.js
